<?xml version="1.0"?>
<svg xmlns="http://www.w3.org/2000/svg" xmlns:xlink="http://www.w3.org/1999/xlink" version="1.1" id="Layer_1" x="0px" y="0px" viewBox="0 0 512 512" style="enable-background:new 0 0 512 512;" xml:space="preserve" width="512px" height="512px" class=""><g transform="matrix(0.99 0 0 0.99 2.56 2.56)"><g>
	<path d="M432.475,84.042h-58.219c-0.5-7.833-6.993-14.036-14.951-14.036h-0.773V37.839C358.531,16.975,341.382,0,320.303,0H191.697   c-21.079,0-38.229,16.975-38.229,37.839v32.167h-0.773c-7.958,0-14.452,6.203-14.951,14.036H79.525   c-43.422,0-78.748,35.326-78.748,78.748v284.886C0.777,483.145,29.633,512,65.101,512h381.799   c35.468,0,64.323-28.855,64.323-64.324V162.79C511.223,119.368,475.896,84.042,432.475,84.042z M265.342,114.042   c13.386,2.672,25.03,10.258,32.874,21.483c8.065,11.543,11.154,25.537,8.695,39.402c-0.97,5.47-2.761,10.654-5.316,15.477   l-42.149,4.837c-4.309,0.495-8.191,2.829-10.649,6.402l-61.742,89.772c-2.254,3.277-3.114,7.316-2.391,11.229   s2.972,7.376,6.25,9.631l61.576,42.35c2.597,1.786,5.557,2.642,8.486,2.642c4.772,0,9.464-2.271,12.373-6.501l61.742-89.771   c2.457-3.573,3.248-8.035,2.168-12.234l-10.678-41.54c4.848-8.351,8.162-17.432,9.869-27.054   c3.858-21.756-0.987-43.712-13.644-61.824c-1.033-1.479-2.124-2.902-3.239-4.299h54.165V482H138.268V114.042H265.342z    M306.506,249.617l-49.375,71.789l-36.857-25.35l49.374-71.789l29.472-3.382L306.506,249.617z M183.469,37.839   c0-4.469,3.537-7.839,8.229-7.839h128.605c4.691,0,8.229,3.37,8.229,7.839v32.167h-0.774c-7.958,0-14.452,6.203-14.951,14.036   H199.194c-0.499-7.833-6.993-14.036-14.951-14.036h-0.774V37.839z M30.777,447.676V162.79c0-26.88,21.868-48.748,48.748-48.748   h28.742V482H65.101C46.175,482,30.777,466.603,30.777,447.676z M481.223,447.676c0,18.927-15.397,34.324-34.323,34.324h-43.167   V114.042h28.742c26.88,0,48.748,21.868,48.748,48.748V447.676z" data-original="#000000" class="active-path" data-old_color="#000000" fill="#696D7D"/>
</g></g> </svg>
